<svg width="353" height="385" viewBox="0 0 353 385" fill="none" xmlns="http://www.w3.org/2000/svg">
<g clip-path="url(#clip0)">
<path opacity="0.1" d="M346.124 75.8834C375.386 156.28 303.39 336.159 220.646 366.276C119.114 416.541 47.1051 355.631 17.8433 275.235C-20.9892 168.544 7.9674 80.1846 90.7106 50.0685C173.454 19.9524 316.862 -4.513 346.124 75.8834Z" fill="#5860DF"/>
<g clip-path="url(#clip1)">
<g clip-path="url(#clip2)">
<path fill-rule="evenodd" clip-rule="evenodd" d="M70.1115 7.19446C70.6276 6.96824 71.2313 7.16885 71.5093 7.65903L82.3236 26.7236L93.138 45.8029C93.2915 46.0737 93.323 46.397 93.2247 46.6924C93.1263 46.9878 92.9074 47.2277 92.6221 47.3525L84.3874 50.9614C84.1023 51.0866 83.7776 51.085 83.4938 50.9571C83.2099 50.8293 82.9936 50.5871 82.8984 50.2907L69.5058 8.53716C69.3338 8.00051 69.5953 7.42069 70.1115 7.19446ZM74.8499 18.0054L84.6197 48.4577L90.6235 45.8265L80.4107 27.8087L74.8499 18.0054Z" fill="#B0BAFF"/>
<path d="M86.509 40.5582L26.4219 54.0939L134.736 6.64008L86.509 40.5582Z" fill="#B0BAFF"/>
<path fill-rule="evenodd" clip-rule="evenodd" d="M135.983 5.9372C136.344 6.57821 136.161 7.38849 135.559 7.81171L87.3321 41.7298C87.1787 41.8376 87.0057 41.9143 86.8228 41.9555L26.7357 55.4913C26.0157 55.6535 25.2903 55.242 25.06 54.5407C24.8298 53.8395 25.1701 53.0781 25.8461 52.782L134.161 5.32813C134.834 5.03291 135.622 5.29618 135.983 5.9372ZM40.6663 49.4166L85.9163 39.2232L122.235 13.6804L40.6663 49.4166Z" fill="#B0BAFF"/>
<path d="M100.674 54.4966L84.3738 61.644C81.3229 62.9761 77.7707 61.5867 76.4386 58.5502L70.1076 44.0977C68.7755 41.0468 70.1649 37.4946 73.2015 36.1625L89.5016 29.0151C92.5526 27.683 96.1048 29.0724 97.4369 32.1089L103.768 46.5614C105.114 49.6123 103.725 53.1645 100.674 54.4966Z" fill="#313643" stroke="#5860DF" stroke-width="2.19913" stroke-miterlimit="10" stroke-linecap="round" stroke-linejoin="round"/>
<path d="M91.0465 38.554L77.9691 44.2835C76.6514 44.8707 75.1044 44.2548 74.5172 42.937L74.2737 42.3641C73.6864 41.0463 74.3023 39.4994 75.6201 38.9121L88.6975 33.1827C90.0152 32.5955 91.5622 33.2114 92.1494 34.5291L92.3929 35.1021C92.9802 36.4342 92.3786 37.9811 91.0465 38.554Z" fill="#9494FF"/>
<path d="M77.2011 78.6303L77.1986 78.6313C76.168 79.0776 74.9735 78.6082 74.5309 77.5859L74.5309 77.5859L74.5299 77.5836L73.0842 74.2772C73.084 74.2769 73.0839 74.2765 73.0837 74.2761C72.6385 73.2461 73.1074 72.0528 74.1284 71.61L74.4279 71.4816L74.4279 71.4816L74.4304 71.4806C75.461 71.0343 76.6555 71.5037 77.0981 72.5259L77.0981 72.5259L77.0991 72.5283L78.5458 75.837L78.5459 75.8372C78.9896 76.8515 78.5222 78.0588 77.5006 78.5019C77.5002 78.5021 77.4998 78.5022 77.4994 78.5024L77.2011 78.6303Z" fill="#B0BAFF" stroke="#B0BAFF" stroke-width="1.43235"/>
<path d="M99.205 73.9601L99.2025 73.9612C98.1719 74.4074 96.9774 73.938 96.5348 72.9158L96.5348 72.9158L96.5338 72.9134L95.0881 69.6071C95.0879 69.6067 95.0878 69.6063 95.0876 69.606C94.6424 68.576 95.1113 67.3826 96.1324 66.9398L96.4318 66.8114L96.4318 66.8115L96.4343 66.8104C97.4649 66.3642 98.6594 66.8335 99.102 67.8558L99.102 67.8558L99.103 67.8581L100.55 71.1668L100.55 71.167C100.992 72.1766 100.517 73.3875 99.5031 73.8323L99.205 73.9601Z" fill="#B0BAFF" stroke="#B0BAFF" stroke-width="1.43235"/>
<path d="M117.697 60.8852L117.695 60.8862C116.664 61.3325 115.47 60.8631 115.027 59.8408L115.027 59.8408L115.026 59.8385L113.58 56.5321C113.58 56.5317 113.58 56.5314 113.58 56.531C113.135 55.501 113.603 54.3077 114.625 53.8648L114.924 53.7365L114.924 53.7365L114.926 53.7354C115.957 53.2892 117.152 53.7586 117.594 54.7808L117.594 54.7808L117.595 54.7832L119.042 58.0919L119.042 58.092C119.486 59.1064 119.018 60.3137 117.997 60.7568C117.996 60.757 117.996 60.7571 117.996 60.7573L117.697 60.8852Z" fill="#B0BAFF" stroke="#B0BAFF" stroke-width="1.43235"/>
<path d="M88.1994 50.3984C90.1929 50.3984 91.8089 48.7824 91.8089 46.7889C91.8089 44.7954 90.1929 43.1794 88.1994 43.1794C86.2059 43.1794 84.5898 44.7954 84.5898 46.7889C84.5898 48.7824 86.2059 50.3984 88.1994 50.3984Z" stroke="#B0BAFF" stroke-width="2.19913" stroke-miterlimit="10" stroke-linecap="round" stroke-linejoin="round"/>
<path d="M84.8055 45.6303L66.0703 34.8734" stroke="#B0BAFF" stroke-width="2.19913" stroke-miterlimit="10" stroke-linecap="round" stroke-linejoin="round"/>
<path d="M87.8984 50.8554L88.4714 74.7614" stroke="#B0BAFF" stroke-width="2.19913" stroke-miterlimit="10" stroke-linecap="round" stroke-linejoin="round"/>
<path d="M91.4922 45.3404L109.397 33.5522" stroke="#B0BAFF" stroke-width="2.19913" stroke-miterlimit="10" stroke-linecap="round" stroke-linejoin="round"/>
<path fill-rule="evenodd" clip-rule="evenodd" d="M133.504 35.9886C133.504 35.1976 134.145 34.5563 134.936 34.5563H160.017C160.808 34.5563 161.449 35.1976 161.449 35.9886C161.449 36.7797 160.808 37.421 160.017 37.421H134.936C134.145 37.421 133.504 36.7797 133.504 35.9886Z" fill="#B0BAFF"/>
<path fill-rule="evenodd" clip-rule="evenodd" d="M129.02 40.5992C129.02 39.8082 129.661 39.1669 130.452 39.1669H156.578C157.369 39.1669 158.01 39.8082 158.01 40.5992C158.01 41.3903 157.369 42.0316 156.578 42.0316H130.452C129.661 42.0316 129.02 41.3903 129.02 40.5992Z" fill="#B0BAFF"/>
<path fill-rule="evenodd" clip-rule="evenodd" d="M17.0391 1.7545C17.0391 0.963429 17.6803 0.322144 18.4714 0.322144H48.0208C48.8119 0.322144 49.4532 0.963429 49.4532 1.7545C49.4532 2.54556 48.8119 3.18685 48.0208 3.18685H18.4714C17.6803 3.18685 17.0391 2.54556 17.0391 1.7545Z" fill="#B0BAFF"/>
<path fill-rule="evenodd" clip-rule="evenodd" d="M21.8945 6.36894C21.8945 5.57787 22.5358 4.93658 23.3269 4.93658H54.1224C54.9135 4.93658 55.5548 5.57787 55.5548 6.36894C55.5548 7.16 54.9135 7.80129 54.1224 7.80129H23.3269C22.5358 7.80129 21.8945 7.16 21.8945 6.36894Z" fill="#B0BAFF"/>
<path fill-rule="evenodd" clip-rule="evenodd" d="M19.2578 76.9248C19.2578 76.1338 19.8991 75.4925 20.6902 75.4925H34.9564C35.7475 75.4925 36.3887 76.1338 36.3887 76.9248C36.3887 77.7159 35.7475 78.3572 34.9564 78.3572H20.6902C19.8991 78.3572 19.2578 77.7159 19.2578 76.9248Z" fill="#B0BAFF"/>
<path fill-rule="evenodd" clip-rule="evenodd" d="M23.0273 81.5355C23.0273 80.7444 23.6686 80.1031 24.4597 80.1031H39.3418C40.1329 80.1031 40.7742 80.7444 40.7742 81.5355C40.7742 82.3266 40.1329 82.9679 39.3418 82.9679H24.4597C23.6686 82.9679 23.0273 82.3266 23.0273 81.5355Z" fill="#B0BAFF"/>
</g>
</g>
<path d="M237.802 213.322H221.597C220.086 213.322 218.852 212.099 218.852 210.577V169.965C218.852 168.454 220.074 167.22 221.597 167.22H237.802C239.313 167.22 240.547 168.443 240.547 169.965V210.577C240.547 212.099 239.325 213.322 237.802 213.322Z" fill="#5860DF"/>
<path d="M214.607 94.2213C218.735 94.2213 222.081 90.875 222.081 86.7472C222.081 82.6194 218.735 79.2731 214.607 79.2731C210.479 79.2731 207.133 82.6194 207.133 86.7472C207.133 90.875 210.479 94.2213 214.607 94.2213Z" fill="#B0BAFF"/>
<path d="M123.462 205.884H108.653C107.188 205.884 105.988 204.696 105.988 203.219V179.551C105.988 178.087 107.176 176.887 108.653 176.887H123.462C124.927 176.887 126.127 178.075 126.127 179.551V203.219C126.127 204.696 124.939 205.884 123.462 205.884Z" fill="#5860DF"/>
<path d="M90.2227 222.943H264.698V99.805L220.338 57.9824L178.193 97.7058V169.967H90.2227V222.943Z" stroke="#B0BAFF" stroke-width="2.19913" stroke-miterlimit="10" stroke-linejoin="round"/>
<path d="M201.11 76.1024L181.398 94.6838L184.017 57.9824H201.11V76.1024Z" stroke="#B0BAFF" stroke-width="2.19913" stroke-miterlimit="10" stroke-linecap="round" stroke-linejoin="round"/>
<path d="M178.191 169.967H76.4141L82.8616 125.353H178.191V169.967Z" fill="#5860DF"/>
<path fill-rule="evenodd" clip-rule="evenodd" d="M81.7753 125.196C81.8534 124.655 82.317 124.254 82.8635 124.254H178.193C178.8 124.254 179.292 124.746 179.292 125.353V169.967C179.292 170.574 178.8 171.066 178.193 171.066H76.416C76.0969 171.066 75.7936 170.928 75.5847 170.687C75.3759 170.445 75.2821 170.125 75.3277 169.81L81.7753 125.196ZM83.8156 126.453L77.6859 168.867H177.093V126.453H83.8156Z" fill="#B0BAFF"/>
<path d="M249.784 222.943H231.318C230.43 222.943 229.703 222.228 229.703 221.329V178.457C229.703 177.568 230.418 176.842 231.318 176.842H249.784C250.672 176.842 251.399 177.557 251.399 178.457V221.329C251.387 222.217 250.672 222.943 249.784 222.943Z" stroke="#B0BAFF" stroke-width="2.19913" stroke-miterlimit="10" stroke-linecap="round" stroke-linejoin="round"/>
<path d="M213.672 51.7666L275.714 110.256" stroke="#B0BAFF" stroke-width="2.19913" stroke-miterlimit="10" stroke-linecap="round" stroke-linejoin="round"/>
<path d="M219.759 99.8847C223.887 99.8847 227.233 96.5384 227.233 92.4106C227.233 88.2828 223.887 84.9365 219.759 84.9365C215.631 84.9365 212.285 88.2828 212.285 92.4106C212.285 96.5384 215.631 99.8847 219.759 99.8847Z" stroke="#5860DF" stroke-width="2.93218" stroke-miterlimit="10" stroke-linecap="round" stroke-linejoin="round"/>
<path d="M220.34 57.9824L166.441 108.79" stroke="#B0BAFF" stroke-width="2.19913" stroke-miterlimit="10" stroke-linecap="round" stroke-linejoin="round"/>
<path d="M130.868 209.242L113.82 208.965L114.005 183.578L131.052 183.867L130.868 209.242Z" stroke="#B0BAFF" stroke-width="2.19913" stroke-miterlimit="10" stroke-linecap="round" stroke-linejoin="round"/>
<path d="M122.517 185.02L122.344 209.103" stroke="#B0BAFF" stroke-width="2.19913" stroke-miterlimit="10" stroke-linecap="round" stroke-linejoin="round"/>
<path d="M113.91 196.266L130.958 196.554" stroke="#B0BAFF" stroke-width="2.19913" stroke-miterlimit="10" stroke-linecap="round" stroke-linejoin="round"/>
<path d="M162.9 205.884H148.09C146.625 205.884 145.426 204.696 145.426 203.219V179.551C145.426 178.087 146.614 176.887 148.09 176.887H162.9C164.365 176.887 165.564 178.075 165.564 179.551V203.219C165.553 204.696 164.365 205.884 162.9 205.884Z" fill="#5860DF"/>
<path d="M170.293 209.242L153.246 208.965L153.442 183.578L170.49 183.867L170.293 209.242Z" stroke="#B0BAFF" stroke-width="2.19913" stroke-miterlimit="10" stroke-linecap="round" stroke-linejoin="round"/>
<path d="M161.954 185.02L161.77 209.103" stroke="#B0BAFF" stroke-width="2.19913" stroke-miterlimit="10" stroke-linecap="round" stroke-linejoin="round"/>
<path d="M153.348 196.266L170.395 196.554" stroke="#B0BAFF" stroke-width="2.19913" stroke-miterlimit="10" stroke-linecap="round" stroke-linejoin="round"/>
<path d="M204.087 144.327H189.278C187.813 144.327 186.613 143.139 186.613 141.663V117.995C186.613 116.53 187.801 115.331 189.278 115.331H204.087C205.552 115.331 206.752 116.519 206.752 117.995V141.663C206.74 143.128 205.552 144.327 204.087 144.327Z" fill="#5860DF"/>
<path d="M211.492 147.682L194.434 147.394L194.63 122.019L211.677 122.296L211.492 147.682Z" stroke="#B0BAFF" stroke-width="2.19913" stroke-miterlimit="10" stroke-linecap="round" stroke-linejoin="round"/>
<path d="M203.142 123.45L202.969 147.533" stroke="#B0BAFF" stroke-width="2.19913" stroke-miterlimit="10" stroke-linecap="round" stroke-linejoin="round"/>
<path d="M194.535 134.707L211.583 134.984" stroke="#B0BAFF" stroke-width="2.19913" stroke-miterlimit="10" stroke-linecap="round" stroke-linejoin="round"/>
<path d="M243.513 144.327H228.703C227.239 144.327 226.039 143.139 226.039 141.663V117.995C226.039 116.53 227.227 115.331 228.703 115.331H243.513C244.978 115.331 246.178 116.519 246.178 117.995V141.663C246.178 143.128 244.99 144.327 243.513 144.327Z" fill="#5860DF"/>
<path d="M250.915 147.682L233.867 147.394L234.052 122.019L251.111 122.296L250.915 147.682Z" stroke="#B0BAFF" stroke-width="2.19913" stroke-miterlimit="10" stroke-linecap="round" stroke-linejoin="round"/>
<path d="M242.575 123.45L242.391 147.533" stroke="#B0BAFF" stroke-width="2.19913" stroke-miterlimit="10" stroke-linecap="round" stroke-linejoin="round"/>
<path d="M233.957 134.707L251.004 134.984" stroke="#B0BAFF" stroke-width="2.19913" stroke-miterlimit="10" stroke-linecap="round" stroke-linejoin="round"/>
<path d="M291.899 231.04C297.665 231.523 301.695 233.287 301.874 234.946C302.053 236.605 298.075 261.482 296.939 266.05C293.646 279.344 288.963 288.154 288.069 293.877C287.164 299.611 285.754 309.156 284.87 310.206C283.976 311.256 277.81 312.811 267.11 311.886C256.409 310.962 233.692 307.655 229.568 307.403C225.443 307.151 209.481 306.457 209.65 303.717C209.818 300.976 212.07 291.189 218.572 288.564C225.085 285.928 240.331 287.493 248.959 288.018C256.935 288.501 263.374 290.696 267.194 291.672C269.161 292.176 267.594 281.675 267.93 276.183C268.267 270.691 270.95 257.859 272.623 252.997C274.296 248.135 280.093 230.042 291.899 231.04Z" fill="#5860DF"/>
<path d="M211.125 279.964C213.882 275.449 221.079 270.65 227.623 271.879C234.168 273.107 243.438 279.996 252.055 280.521C264.376 281.266 280.532 281.392 287.992 280.521" stroke="#5860DF" stroke-width="2.93218" stroke-miterlimit="10" stroke-linecap="round"/>
<path d="M206.125 282.964C208.882 278.449 216.079 273.65 222.623 274.879C229.168 276.107 238.438 282.996 247.055 283.521C259.376 284.266 285.239 284.508 292.699 283.636" stroke="#B0BAFF" stroke-width="2.93218" stroke-miterlimit="10" stroke-linecap="round"/>
<path fill-rule="evenodd" clip-rule="evenodd" d="M195.104 329.301C195.403 328.548 196.255 328.181 197.008 328.48C198.272 328.982 199.543 329.496 200.827 330.015C212.089 334.567 224.363 339.529 241.462 340.56L241.462 340.56C256.54 341.471 271.176 337.213 283.862 333.522C284.959 333.203 286.04 332.888 287.107 332.581C287.885 332.357 288.697 332.806 288.921 333.585C289.145 334.363 288.695 335.175 287.917 335.399C286.842 335.708 285.746 336.028 284.63 336.353C272.012 340.028 256.899 344.43 241.285 343.487L241.374 342.023L241.285 343.487C223.686 342.425 210.994 337.291 199.731 332.735C198.445 332.215 197.179 331.703 195.925 331.205C195.173 330.906 194.805 330.053 195.104 329.301Z" fill="#B0BAFF"/>
<path d="M275.998 315.918C275.493 324.182 274.23 344.858 274.23 344.858" stroke="#B0BAFF" stroke-width="2.93218" stroke-miterlimit="10" stroke-linecap="round"/>
<path d="M225.791 271.7C226.528 277.654 222.866 303.917 221.488 308.873C220.109 313.83 212.334 337.226 211.113 339.084" stroke="#B0BAFF" stroke-width="2.93218" stroke-miterlimit="10" stroke-linecap="round"/>
<path d="M203.043 335.661C215.332 340.544 228.622 346.676 247.95 347.842C264.638 348.85 280.768 343.641 294.088 339.809" stroke="#B0BAFF" stroke-width="2.93218" stroke-miterlimit="10" stroke-linecap="round"/>
<path d="M297.263 234.831C303.029 235.314 307.059 237.078 307.238 238.737C307.417 240.396 306.165 256.725 302.303 269.841C298.442 282.977 294.328 291.945 293.434 297.668C292.529 303.402 291.119 312.947 290.235 313.997C289.341 315.047 283.175 316.602 272.474 315.677C261.773 314.753 239.067 311.446 234.943 311.194C230.818 310.942 214.856 310.248 215.025 307.508C215.193 304.767 217.445 294.98 223.947 292.355C230.46 289.719 245.706 291.284 254.334 291.809C262.31 292.292 268.77 294.413 272.569 295.463C276.367 296.513 272.969 285.466 273.305 279.974C273.642 274.482 276.325 261.65 277.998 256.788C279.671 251.926 285.458 233.844 297.263 234.831Z" stroke="#B0BAFF" stroke-width="2.93218" stroke-miterlimit="10"/>
<path d="M162.243 192.379L24.4961 220.557L41.4815 303.589L179.229 275.411L162.243 192.379Z" fill="#32394B"/>
<path d="M178.084 270.127L179.17 275.439L173.844 276.538" stroke="#B0BAFF" stroke-width="2.5" stroke-linecap="round" stroke-linejoin="round"/>
<path d="M162.285 278.889L52.5238 301.342" stroke="#B0BAFF" stroke-width="2.5" stroke-linecap="round" stroke-linejoin="round"/>
<path d="M46.7466 302.527L41.4212 303.612L40.3359 298.287" stroke="#B0BAFF" stroke-width="2.5" stroke-linecap="round" stroke-linejoin="round"/>
<path d="M38.233 287.952L26.5977 231.076" stroke="#B0BAFF" stroke-width="2.5" stroke-linecap="round" stroke-linejoin="round"/>
<path d="M25.5439 225.9L24.4451 220.574L29.7705 219.489" stroke="#B0BAFF" stroke-width="2.5" stroke-linecap="round" stroke-linejoin="round"/>
<path d="M41.3292 217.123L151.089 194.684" stroke="#B0BAFF" stroke-width="2.5" stroke-linecap="round" stroke-linejoin="round"/>
<path d="M156.867 193.502L162.192 192.417L163.278 197.742" stroke="#B0BAFF" stroke-width="2.5" stroke-linecap="round" stroke-linejoin="round"/>
<path d="M165.398 208.08L177.02 264.955" stroke="#B0BAFF" stroke-width="2.5" stroke-linecap="round" stroke-linejoin="round"/>
<path d="M107.727 239.429C113.317 236.711 134.215 225.531 134.215 225.531C134.457 225.081 88.7209 225.047 88.7209 225.047C88.3329 225.175 49.6074 247.146 49.9569 248.226C50.1772 248.932 68.0585 247.181 80.9985 246.21C79.8067 250.364 76.8268 262.886 76.8268 262.886C76.8238 263.013 76.8496 263.139 76.9021 263.254C76.9547 263.37 77.0328 263.472 77.1304 263.553C77.2281 263.635 77.3429 263.693 77.4662 263.723C77.5895 263.754 77.7181 263.756 77.8424 263.73C77.8424 263.73 99.4731 266.361 100.588 266.136L119.129 250.472C119.247 250.423 119.351 250.346 119.434 250.25C119.517 250.153 119.576 250.039 119.608 249.916C119.64 249.792 119.643 249.664 119.617 249.539C119.59 249.414 119.536 249.297 119.457 249.197C119.457 249.197 111.839 242.891 107.727 239.429Z" fill="#5860DF"/>
<path d="M115.485 242.162C121.076 239.445 141.973 228.278 141.973 228.278C142.216 227.815 96.4785 227.794 96.4785 227.794C96.0905 227.922 57.3657 249.879 57.7153 250.959C57.9348 251.679 75.8162 249.928 88.7569 248.944C87.5651 253.098 84.5852 265.619 84.5852 265.619C84.5795 265.747 84.6034 265.874 84.6552 265.991C84.7069 266.108 84.785 266.212 84.8833 266.293C84.9817 266.375 85.0976 266.433 85.2221 266.463C85.3466 266.492 85.4762 266.492 85.6008 266.463C85.6008 266.463 107.232 269.094 108.345 268.883L126.887 253.219C127.014 253.171 127.127 253.092 127.217 252.99C127.307 252.888 127.371 252.766 127.404 252.634C127.436 252.503 127.436 252.365 127.404 252.233C127.372 252.101 127.308 251.979 127.219 251.876C127.219 251.876 119.584 245.624 115.485 242.162Z" stroke="#B0BAFF" stroke-width="2.5" stroke-linecap="round" stroke-linejoin="round"/>
<path d="M99.5851 236.035C99.5851 236.035 126.917 233.926 129.644 233.83C132.371 233.733 139.455 270.67 139.455 270.67" stroke="#B0BAFF" stroke-width="2.5" stroke-miterlimit="10" stroke-linecap="round"/>
<path d="M96.7009 240.87C99.0448 240.399 100.731 238.955 100.468 237.643C100.205 236.331 98.0917 235.648 95.7478 236.118C93.404 236.589 91.7173 238.033 91.9805 239.345C92.2437 240.657 94.3571 241.34 96.7009 240.87Z" fill="#32394B" stroke="#B0BAFF" stroke-width="1.6511" stroke-miterlimit="10"/>
<path d="M138.402 267.264C140.119 267.358 141.585 266.042 141.678 264.326C141.772 262.61 140.456 261.143 138.74 261.05C137.024 260.957 135.557 262.272 135.464 263.988C135.371 265.704 136.686 267.171 138.402 267.264Z" fill="#B0BAFF"/>
<path d="M87.8023 258.268L107.869 260.624L123.865 248.496" stroke="#B0BAFF" stroke-width="2.5" stroke-linecap="round" stroke-linejoin="round"/>
</g>
<defs>
<clipPath id="clip0">
<rect width="353" height="385" fill="white"/>
</clipPath>
<clipPath id="clip1">
<rect x="-13.75" y="0.322083" width="376.785" height="397.31" fill="white"/>
</clipPath>
<clipPath id="clip2">
<rect x="17.0391" y="0.322083" width="144.41" height="82.6467" fill="white"/>
</clipPath>
</defs>
</svg>
