<svg width="17" height="15" viewBox="0 0 17 15" fill="none" xmlns="http://www.w3.org/2000/svg">
<path fill-rule="evenodd" clip-rule="evenodd" d="M11.2903 14.9995V10.0375C11.2903 9.28613 11.2086 8.60013 11.0453 7.97946C10.8983 7.34246 10.6288 6.79529 10.2368 6.33796C9.84475 5.88063 9.31392 5.52129 8.64425 5.25996C7.99092 4.99863 7.15792 4.86796 6.14525 4.86796C4.57725 4.86796 3.34408 5.15379 2.44575 5.72546C1.54742 6.29713 0.983917 7.20363 0.75525 8.44496L3.30325 8.71446C3.43392 8.15913 3.70342 7.73446 4.11175 7.44046C4.53642 7.14646 5.18158 6.99946 6.04725 6.99946C6.79858 6.99946 7.40292 7.18729 7.86025 7.56296C8.33392 7.92229 8.57075 8.58379 8.57075 9.54746V10.0865L6.68425 10.1845C5.90025 10.2171 5.11625 10.2988 4.33225 10.4295C3.54825 10.5438 2.83775 10.7561 2.20075 11.0665C1.58008 11.3768 1.07375 11.8096 0.68175 12.365C0.28975 12.904 0.09375 13.6145 0.09375 14.4965C0.09375 14.6699 0.101232 14.8376 0.116196 14.9995H2.96712C2.91354 14.8183 2.88675 14.6179 2.88675 14.3985C2.88675 14.0881 2.92758 13.8023 3.00925 13.541C3.10725 13.2633 3.29508 13.0265 3.57275 12.8305C3.85042 12.6181 4.24242 12.4466 4.74875 12.316C5.27142 12.1853 5.94925 12.0955 6.78225 12.0465L8.57075 11.973V12.708C8.57075 13.6428 8.34282 14.4066 7.88695 14.9995H11.2903ZM16.0081 0.506958V14.9995H13.373V0.506958H16.0081Z" fill="#C46E38"/>
</svg>
